<?xml version="1.0" encoding="utf-8"?>
<!-- Generator: Adobe Illustrator 15.1.0, SVG Export Plug-In . SVG Version: 6.00 Build 0)  -->
<!DOCTYPE svg PUBLIC "-//W3C//DTD SVG 1.1//EN" "http://www.w3.org/Graphics/SVG/1.1/DTD/svg11.dtd">
<svg version="1.1" id="Layer_1" xmlns="http://www.w3.org/2000/svg" xmlns:xlink="http://www.w3.org/1999/xlink" x="0px" y="0px"
	 width="512px" height="384px" viewBox="0 0 512 384" xml:space="preserve">
<g>
	<g>
		<path fill-rule="evenodd" clip-rule="evenodd" fill="#D37BA7" d="M232,31c1.4-1.657,9.6-1.657,11,0C239.333,31,235.667,31,232,31z
			"/>
		<path fill-rule="evenodd" clip-rule="evenodd" fill="#E9BBD2" d="M185,176c-2.378,1.66-11.622,1.66-14,0
			C175.667,176,180.333,176,185,176z"/>
		<path fill-rule="evenodd" clip-rule="evenodd" fill="#E9BBD2" d="M436,221c1.078-1.655,8.922-1.655,10,0
			C442.667,221,439.333,221,436,221z"/>
		<path fill-rule="evenodd" clip-rule="evenodd" fill="#DD97BA" d="M440,238c0-0.333,0-0.667,0-1c1.496,0.17,3.69-0.357,4,1
			C442.667,238,441.333,238,440,238z"/>
		<path fill-rule="evenodd" clip-rule="evenodd" fill="#F5DFEA" d="M404,261c1.641-0.164,1.641,6.164,0,6C404,265,404,263,404,261z"
			/>
		<path fill-rule="evenodd" clip-rule="evenodd" fill="#F5DFEA" d="M335,277c1.641-0.164,1.641,6.164,0,6C335,281,335,279,335,277z"
			/>
		<path fill-rule="evenodd" clip-rule="evenodd" fill="#DD97BA" d="M177,287c-1.633,0.45-1.633-5.45,0-5
			C177,283.667,177,285.333,177,287z"/>
		<path fill-rule="evenodd" clip-rule="evenodd" fill="#F5DFEA" d="M151,284c0,3,0,6,0,9C149.347,292.241,149.347,284.759,151,284z"
			/>
		<path fill-rule="evenodd" clip-rule="evenodd" fill="#DD97BA" d="M115,288c1.65,0.444,1.65,7.556,0,8
			C115,293.333,115,290.667,115,288z"/>
		<path fill-rule="evenodd" clip-rule="evenodd" fill="#DD97BA" d="M235,297c-1.641,0.164-1.641-6.164,0-6C235,293,235,295,235,297z
			"/>
		<path fill-rule="evenodd" clip-rule="evenodd" fill="#F5DFEA" d="M135,293c1.655,1.078,1.655,8.922,0,10
			C135,299.667,135,296.333,135,293z"/>
		<path fill-rule="evenodd" clip-rule="evenodd" fill="#F5DFEA" d="M17,345c0,2.333,0,4.667,0,7
			C15.354,351.864,15.354,345.136,17,345z"/>
		<path fill-rule="evenodd" clip-rule="evenodd" fill="#D37BA7" d="M59,355c1.333,0,2.667,0,4,0
			C63.715,356.622,58.285,356.622,59,355z"/>
		<path fill-rule="evenodd" clip-rule="evenodd" fill="#D37BA7" d="M52,384c0-0.333,0-0.667,0-1c1.333,0,2.667,0,4,0
			c0,0.333,0,0.667,0,1C54.667,384,53.333,384,52,384z"/>
		<path fill-rule="evenodd" clip-rule="evenodd" fill="#F5DFEA" d="M32,92c3.582-4.418,7.582-8.418,12-12
			c-1.035,2.632-3.965,3.368-5,6c-1.44,0.56-2.44,1.56-3,3C33.961,89.294,34.039,91.706,32,92z"/>
		<path fill-rule="evenodd" clip-rule="evenodd" fill="#D37BA7" d="M31,94c0.19-0.81,1.003-0.997,1-2c2.039-0.294,1.961-2.706,4-3
			C34.758,91.092,33.092,92.758,31,94z"/>
		<path fill-rule="evenodd" clip-rule="evenodd" fill="#DD97BA" d="M305,22c1.763,0.903,3.097,2.237,4,4
			C307.237,25.097,305.903,23.763,305,22z"/>
		<path fill-rule="evenodd" clip-rule="evenodd" fill="#F5DFEA" d="M292,131c0.903-1.763,2.237-3.097,4-4
			C295.097,128.763,293.763,130.097,292,131z"/>
		<path fill-rule="evenodd" clip-rule="evenodd" fill="#E9BBD2" d="M287,136c1.241-2.092,2.908-3.758,5-5
			C290.759,133.092,289.092,134.758,287,136z"/>
		<path fill-rule="evenodd" clip-rule="evenodd" fill="#F5DFEA" d="M283,140c0.903-1.763,2.237-3.097,4-4
			C286.097,137.763,284.763,139.097,283,140z"/>
		<path fill-rule="evenodd" clip-rule="evenodd" fill="#CC6699" d="M287,136c-1.763,0.903-3.097,2.237-4,4
			c-21.789,18.545-50.357,30.31-86,35c-1.453,0.547-5.168-1.168-5,1c-2.333,0-4.667,0-7,0c-4.667,0-9.333,0-14,0
			c-26.781-1.235-49.828-11.484-52-34c0.807-0.693,2.739-1.556,3,0c1.578,2.422,3.578,4.422,6,6c9.174,5.493,18.407,10.926,33,11
			c1.4,1.657,9.6,1.657,11,0c41.465-2.868,70.007-18.661,94-39c2.754-1.913,5.088-4.246,7-7c15.82-13.234,33.949-54.29,10-72
			c-9.354-3.647-16.955-9.045-30-9c-0.745-2.255-5.609-0.391-8-1c-0.667,0-1.333,0-2,0c-1.4-1.657-9.6-1.657-11,0c-2,0-4,0-6,0
			c-1.453,0.547-5.168-1.168-5,1c-64.228,8.439-108.613,36.72-149,69c-0.81,0.19-0.997,1.003-2,1c-3.419,2.581-6.419,5.581-9,9
			c-0.19,0.81-1.003,0.997-1,2c-21.976,15.125-29.739,66.832-5,85c2.247,3.087,4.914,5.753,8,8c15.434,13.565,32.779,25.221,48,39
			c2.247,3.087,4.914,5.753,8,8c18.404-11.596,41.264-18.736,56-34c1.763-0.903,3.097-2.237,4-4c-0.184-0.851,0.39-0.943,1-1
			c1.763-0.903,3.097-2.237,4-4c7.194-6.806,15.538-12.462,27-15c2.667,0,5.333,0,8,0c11.116,1.884,13.826,12.174,13,26
			c-1.357,0.31-0.83,2.504-1,4c0,0.333,0,0.667,0,1c2.102-1.46,13.086-3.37,16,2c0.688,21.716-11.297,39.349-12,63
			c-1.641-0.164-1.641,6.164,0,6c0,0.667,0,1.333,0,2c10.551-10.784,17.087-34.244,26-50c7.782-18.218,15.313-36.687,24-54
			c0.568-6.098,2.587-10.747,4-16c3.694-0.972,5.393-3.941,11-3c2.391-0.609,7.255,1.255,8-1c0.333,0,0.667,0,1,0
			c0.31,1.357,2.504,0.83,4,1c2.338,0.329,4.132,1.202,6,2c1.32,7.801-5.667,15.558-5,26c-1.657,1.4-1.657,9.6,0,11
			c-0.794,11.461,4.794,16.54,7,25c15.367-22.633,29.59-46.409,37-77c3.414-0.253,4.805-2.528,9-2c1.583-0.083,3.814,0.481,4-1
			c6.809-0.142,13.329,0.004,17,3c1.171,7.651-5.534,15.691-5,26c-1.655,1.078-1.655,8.922,0,10c0.116,14.217,6.499,22.167,11,32
			c12.931-4.402,24.644-10.023,42-10c3.333,0,6.667,0,10,0c35.207,3.126,59.5,17.167,65,50c0,3.667,0,7.333,0,11
			c-0.232,6.768-3.699,10.301-6,15c-2.092,1.241-3.759,2.908-5,5c-4.281,1.719-6.601,5.399-12,6c-2.319,0.319-3.84-0.161-5-1
			c6.323-6.343,14.347-10.986,18-20c1.606-13.939-3.003-21.664-8-29c-1.577-2.423-3.577-4.423-6-6c-11.639-7.361-23.92-14.08-43-14
			c-0.31-1.357-2.504-0.83-4-1c-4.024,0.642-10.634-1.3-13,1c-11.298-0.298-19.093,2.907-27,6c1.585,5.415,3.201,10.799,4,17
			c0,2,0,4,0,6c-0.788,7.212-4.021,11.979-7,17c-2.754,1.912-5.088,4.246-7,7c-10.517,7.149-20.547,14.787-38,15
			c-2.688-2.646-6.476-4.19-7-9c-0.083-1.583,0.48-3.814-1-4c0-0.333,0-0.667,0-1c1.357-0.31,0.83-2.504,1-4
			c2.65-15.016,10.287-25.046,19-34c2.092-1.241,3.759-2.908,5-5c0.697-2.636,4.553-2.114,5-5c-6.214-11.453-11.195-24.138-13-40
			c-11.484,16.516-19.959,36.041-32,52c2.488,6.512,5.911,12.089,6,21c0,2,0,4,0,6c-1.178,8.156-3.498,15.168-8,20
			c-2.092,1.241-3.759,2.908-5,5c-9.09,6.91-19.453,12.547-34,14c-1.758,0.575-5.875-1.209-6,1c-0.333,0-0.667,0-1,0
			c0.169-2.169-3.547-0.453-5-1c-3.88-0.12-5.053-2.947-7-5c5.971-24.362,27.064-33.603,37-54c-4.953-13.38-11.86-24.806-14-41
			c0-1,0-2,0-3c-1.163-0.162-1.779,0.221-2,1c-7.818,20.289-16.74,41.428-27,61c-9.521,18.162-17.064,41.717-38,49
			c-9.882-1.117-12.416-9.584-13-20c0-4,0-8,0-12c0-2,0-4,0-6c1.172-0.161,0.843-1.823,1-3c-0.934,0.732-1.515,1.818-2,3
			c-7.954,16.713-11.927,37.406-29,45c-25.293,0.294-26.832-23.168-31-44c0-3,0-6,0-9c0-1.333,0-2.667,0-4
			c1.357-0.31,0.83-2.504,1-4c-0.049-10.05,3.667-16.332,5-25c-8.373,1.967-19.158,10.171-28,15c1.976,6.024,4.338,11.662,5,19
			c0.083,1.583-0.481,3.814,1,4c0,1.333,0,2.667,0,4c0,3.333,0,6.667,0,10c0,1.333,0,2.667,0,4c-1.357,0.31-0.83,2.504-1,4
			c-2.568,19.766-10.516,34.15-21,46c-2.092,1.241-3.758,2.908-5,5c-11.919,10.081-25.371,18.629-45,21c-2.333,0-4.667,0-7,0
			c-1.333,0-2.667,0-4,0c-2,0-4,0-6,0c-19.286-0.715-26.686-13.314-29-31c0-2.333,0-4.667,0-7c1.123-14.878,7.342-24.657,14-34
			c3.752-2.915,7.085-6.248,10-10c17.914-14.086,37.147-26.854,59-37c-20.004-19.329-46.278-32.389-67-51
			c-3.582-4.418-7.582-8.418-12-12c-8.285-11.048-16.744-21.923-20-38c-0.547-1.453,1.168-5.168-1-5c0-0.667,0-1.333,0-2
			c2.208-0.125,0.425-4.242,1-6c4.354-24.312,16.391-40.942,30-56c2.092-1.242,3.758-2.908,5-5c0.56-1.44,1.56-2.44,3-3
			c2.422-1.578,4.422-3.578,6-6c42.709-36.958,93.838-65.494,161-78c1.583-0.083,3.814,0.481,4-1c1.667,0,3.333,0,5,0
			c3.04-0.627,8.614,1.28,10-1c5.667,0,11.333,0,17,0c0.125,2.208,4.242,0.425,6,1c24.044,1.956,43.043,8.957,57,21
			c0.903,1.763,2.237,3.097,4,4c6.793,7.874,12.503,16.83,13,31c0,4,0,8,0,12c-2.418,25.582-13.987,42.013-26,58
			c-1.763,0.903-3.097,2.237-4,4C289.908,132.242,288.241,133.908,287,136z M212,215c-21.844,12.156-32.649,35.351-35,67
			c-1.633-0.45-1.633,5.45,0,5c0.013,8.321-0.1,16.767,6,19c12.007-8.659,14.717-26.616,21-41c5.98-14.687,12.606-28.728,14-48
			c-0.224-0.776-0.027-1.973-1-2C217.451,213.366,211.549,213.366,212,215z M382,256c-1.251-4.882-5.595,2.564-7,4
			c-5.674,6.992-11.021,14.312-13,25c-2.573-0.155-0.542,8.271,1,4c4.977-0.023,6.92-3.08,10-5c1.763-0.903,3.097-2.237,4-4
			c1.974-3.693,5.119-6.215,5-12c1.48-0.186,0.917-2.417,1-4c0-0.667,0-1.333,0-2c-0.171-1.496,0.357-3.69-1-4
			C382,257.333,382,256.667,382,256z M115,288c0.295-5.628-0.551-10.115-2-14c-25.687,16.646-56.071,28.596-64,63
			c-1.481,0.186-0.917,2.416-1,4c-0.433,6.434,2.352,9.648,5,13c2.356-0.022,2.944,1.723,6,1c-0.715,1.622,4.715,1.622,4,0
			c30.417-6.582,48.244-25.756,52-59C116.65,295.556,116.65,288.444,115,288z M313,278c-4.863,4.804-8.896,10.438-13,16
			c-1.763,0.903-3.097,2.237-4,4c-1.313,2.684-9.76,7.785-6,9c5.153-1.18,7.832-4.835,12-7c2.092-1.241,3.759-2.908,5-5
			c2.035-4.299,5.75-6.917,6-13C315.226,282.77,313.783,274.222,313,278z"/>
		<path fill-rule="evenodd" clip-rule="evenodd" fill="#D37BA7" d="M122,142c2.422,1.578,4.422,3.578,6,6
			C125.578,146.422,123.578,144.422,122,142z"/>
		<path fill-rule="evenodd" clip-rule="evenodd" fill="#DD97BA" d="M266,120c1.912-2.754,4.246-5.087,7-7
			C271.088,115.754,268.754,118.087,266,120z"/>
		<path fill-rule="evenodd" clip-rule="evenodd" fill="#D37BA7" d="M61,111c2.581-3.419,5.581-6.419,9-9
			c-0.294,2.039-2.706,1.961-3,4c-0.89,0.443-1.789,0.878-2,2C62.961,108.294,63.039,110.706,61,111z"/>
		<path fill-rule="evenodd" clip-rule="evenodd" fill="#F5DFEA" d="M60,113c-0.003-1.003,0.81-1.19,1-2c2.039-0.294,1.961-2.706,4-3
			C63.758,110.092,62.092,111.758,60,113z"/>
		<path fill-rule="evenodd" clip-rule="evenodd" fill="#DD97BA" d="M55,198c3.086,2.247,5.753,4.913,8,8
			C59.914,203.753,57.247,201.087,55,198z"/>
		<path fill-rule="evenodd" clip-rule="evenodd" fill="#DD97BA" d="M111,245c3.086,2.247,5.753,4.913,8,8
			C115.914,250.753,113.247,248.087,111,245z"/>
		<path fill-rule="evenodd" clip-rule="evenodd" fill="#D37BA7" d="M175,219c-0.003-1.003,0.81-1.19,1-2
			c1.313-0.354,1.573-1.761,3-2C178.097,216.763,176.763,218.097,175,219z"/>
		<path fill-rule="evenodd" clip-rule="evenodd" fill="#D37BA7" d="M180,214c0.354-1.313,1.76-1.573,2-3c1.003,0.003,1.19-0.81,2-1
			C183.097,211.763,181.763,213.097,180,214z"/>
		<path fill-rule="evenodd" clip-rule="evenodd" fill="#F5DFEA" d="M500,302c1.241-2.092,2.908-3.759,5-5
			C503.759,299.092,502.092,300.759,500,302z"/>
		<path fill-rule="evenodd" clip-rule="evenodd" fill="#DD97BA" d="M488,308c-0.416,2.221-5.483,0.96-5-1
			C484.16,307.839,485.681,308.319,488,308z"/>
		<path fill-rule="evenodd" clip-rule="evenodd" fill="#D37BA7" d="M493,258c-2.423-1.577-4.423-3.577-6-6
			C489.423,253.577,491.423,255.577,493,258z"/>
		<path fill-rule="evenodd" clip-rule="evenodd" fill="#F5DFEA" d="M390,291c1.912-2.754,4.246-5.088,7-7
			C395.088,286.754,392.754,289.088,390,291z"/>
		<path fill-rule="evenodd" clip-rule="evenodd" fill="#D37BA7" d="M364,254c1.241-2.092,2.908-3.759,5-5
			C367.759,251.092,366.092,252.759,364,254z"/>
		<path fill-rule="evenodd" clip-rule="evenodd" fill="#DD97BA" d="M322,308c1.241-2.092,2.908-3.759,5-5
			C325.759,305.092,324.092,306.759,322,308z"/>
		<path fill-rule="evenodd" clip-rule="evenodd" fill="#E9BBD2" d="M108,362c1.242-2.092,2.908-3.759,5-5
			C111.758,359.092,110.092,360.759,108,362z"/>
		<path fill-rule="evenodd" clip-rule="evenodd" fill="#F5DFEA" d="M31,311c2.915-3.752,6.248-7.085,10-10
			C38.085,304.752,34.752,308.085,31,311z"/>
		<path fill-rule="evenodd" clip-rule="evenodd" fill="#F5DFEA" d="M21,201c4.418,3.582,8.418,7.582,12,12
			C28.582,209.418,24.582,205.418,21,201z"/>
		<path fill-rule="evenodd" clip-rule="evenodd" fill="#D37BA7" d="M39,86c1.035-2.632,3.965-3.368,5-6c0.333,0,0.667,0,1,0
			C43.422,82.422,41.422,84.422,39,86z"/>
		<path fill-rule="evenodd" clip-rule="evenodd" fill="#F5DFEA" d="M176,217c1.578-2.423,3.578-4.423,6-6
			c-0.24,1.427-1.646,1.687-2,3c-0.61,0.057-1.184,0.149-1,1C177.573,215.239,177.313,216.646,176,217z"/>
		<path fill-rule="evenodd" clip-rule="evenodd" fill="#F5DFEA" d="M67,106c0.294-2.039,2.706-1.961,3-4c1.003,0.003,1.19-0.81,2-1
			C70.758,103.092,69.092,104.758,67,106z"/>
		<path fill-rule="evenodd" clip-rule="evenodd" fill="#E9BBD2" d="M375,260c1.405-1.436,5.749-8.882,7-4
			C379.049,253.549,377.951,259.355,375,260z"/>
		<path fill-rule="evenodd" clip-rule="evenodd" fill="#E9BBD2" d="M373,284c0.903-1.763,2.237-3.097,4-4
			C376.097,281.763,374.763,283.097,373,284z"/>
		<path fill-rule="evenodd" clip-rule="evenodd" fill="#F5DFEA" d="M362,285c0.171,1.496-0.357,3.69,1,4
			C361.458,293.271,359.427,284.845,362,285z"/>
		<path fill-rule="evenodd" clip-rule="evenodd" fill="#F5DFEA" d="M296,298c0.903-1.763,2.237-3.097,4-4
			C299.097,295.763,297.763,297.097,296,298z"/>
		<path fill-rule="evenodd" clip-rule="evenodd" fill="#D37BA7" d="M302,300c1.241-2.092,2.908-3.759,5-5
			C305.759,297.092,304.092,298.759,302,300z"/>
		<path fill-rule="evenodd" clip-rule="evenodd" fill="#E9BBD2" d="M211,292c0.485-1.182,1.066-2.268,2-3
			c-0.157,1.177,0.172,2.839-1,3C211.667,292,211.333,292,211,292z"/>
		<path fill-rule="evenodd" clip-rule="evenodd" fill="#E9BBD2" d="M242,0c2,0,4,0,6,0c0,0.333,0,0.667,0,1
			C246.242,0.425,242.125,2.208,242,0z"/>
		<path fill-rule="evenodd" clip-rule="evenodd" fill="#E9BBD2" d="M206,2c0.186-1.481,2.417-0.917,4-1
			C209.814,2.481,207.583,1.917,206,2z"/>
		<path fill-rule="evenodd" clip-rule="evenodd" fill="#E9BBD2" d="M221,32c-0.168-2.168,3.547-0.453,5-1
			C226.168,33.168,222.453,31.453,221,32z"/>
		<path fill-rule="evenodd" clip-rule="evenodd" fill="#F5DFEA" d="M245,31c2.391,0.609,7.255-1.255,8,1
			C250.609,31.391,245.745,33.255,245,31z"/>
		<path fill-rule="evenodd" clip-rule="evenodd" fill="#E9BBD2" d="M322,57c1.658,1.725,1.658,10.275,0,12C322,65,322,61,322,57z"/>
		<path fill-rule="evenodd" clip-rule="evenodd" fill="#E9BBD2" d="M1,150c-0.575,1.758,1.208,5.875-1,6c0-2,0-4,0-6
			C0.333,150,0.667,150,1,150z"/>
		<path fill-rule="evenodd" clip-rule="evenodd" fill="#D37BA7" d="M161,159c3.667,0,7.333,0,11,0
			C170.6,160.657,162.4,160.657,161,159z"/>
		<path fill-rule="evenodd" clip-rule="evenodd" fill="#E9BBD2" d="M367,161c0.186-1.481,2.417-0.917,4-1
			C370.814,161.481,368.583,160.917,367,161z"/>
		<path fill-rule="evenodd" clip-rule="evenodd" fill="#DD97BA" d="M0,158c2.168-0.168,0.453,3.547,1,5c-0.333,0-0.667,0-1,0
			C0,161.333,0,159.667,0,158z"/>
		<path fill-rule="evenodd" clip-rule="evenodd" fill="#DD97BA" d="M192,176c-0.168-2.168,3.547-0.453,5-1
			C197.168,177.168,193.453,175.453,192,176z"/>
		<path fill-rule="evenodd" clip-rule="evenodd" fill="#DD97BA" d="M309,175c1.496,0.17,3.69-0.357,4,1
			C311.504,175.83,309.31,176.357,309,175z"/>
		<path fill-rule="evenodd" clip-rule="evenodd" fill="#E9BBD2" d="M212,215c-0.451-1.634,5.451-1.634,5,0
			C215.333,215,213.667,215,212,215z"/>
		<path fill-rule="evenodd" clip-rule="evenodd" fill="#DD97BA" d="M290,220c0.221-0.779,0.837-1.162,2-1c0,1,0,2,0,3
			C290.679,221.988,291.086,220.247,290,220z"/>
		<path fill-rule="evenodd" clip-rule="evenodd" fill="#E9BBD2" d="M232,221c-0.17,1.496,0.357,3.69-1,4
			C231.17,223.504,230.643,221.31,232,221z"/>
		<path fill-rule="evenodd" clip-rule="evenodd" fill="#E9BBD2" d="M382,258c1.357,0.31,0.829,2.504,1,4
			C381.52,261.814,382.083,259.583,382,258z"/>
		<path fill-rule="evenodd" clip-rule="evenodd" fill="#E9BBD2" d="M382,268c0.171-1.496-0.357-3.69,1-4
			C382.917,265.583,383.48,267.814,382,268z"/>
		<path fill-rule="evenodd" clip-rule="evenodd" fill="#E9BBD2" d="M152,276c-0.17,1.496,0.357,3.69-1,4
			C151.17,278.504,150.643,276.31,152,276z"/>
		<path fill-rule="evenodd" clip-rule="evenodd" fill="#E9BBD2" d="M313,282c0-1.333,0-2.667,0-4
			C313.783,274.222,315.226,282.77,313,282z"/>
		<path fill-rule="evenodd" clip-rule="evenodd" fill="#E9BBD2" d="M134,285c1.481,0.186,0.917,2.417,1,4
			C133.519,288.814,134.083,286.583,134,285z"/>
		<path fill-rule="evenodd" clip-rule="evenodd" fill="#DD97BA" d="M345,288c-0.17,1.496,0.357,3.69-1,4
			C344.171,290.504,343.643,288.31,345,288z"/>
		<path fill-rule="evenodd" clip-rule="evenodd" fill="#DD97BA" d="M345,297c-1.48-0.186-0.917-2.417-1-4
			C345.48,293.186,344.917,295.417,345,297z"/>
		<path fill-rule="evenodd" clip-rule="evenodd" fill="#E9BBD2" d="M212,310c-1.658-1.725-1.658-10.275,0-12
			C212,302,212,306,212,310z"/>
		<path fill-rule="evenodd" clip-rule="evenodd" fill="#E9BBD2" d="M135,307c-0.17,1.496,0.357,3.69-1,4
			C134.17,309.504,133.643,307.31,135,307z"/>
		<path fill-rule="evenodd" clip-rule="evenodd" fill="#DD97BA" d="M276,322c1.453,0.547,5.169-1.169,5,1
			C279.547,322.453,275.831,324.169,276,322z"/>
		<path fill-rule="evenodd" clip-rule="evenodd" fill="#DD97BA" d="M282,323c0.125-2.209,4.242-0.425,6-1
			C287.875,324.209,283.758,322.425,282,323z"/>
		<path fill-rule="evenodd" clip-rule="evenodd" fill="#E9BBD2" d="M49,337c-0.17,1.496,0.357,3.69-1,4
			C48.083,339.416,47.519,337.186,49,337z"/>
		<path fill-rule="evenodd" clip-rule="evenodd" fill="#DD97BA" d="M56,383c2.333,0,4.667,0,7,0c0,0.333,0,0.667,0,1
			c-2.333,0-4.667,0-7,0C56,383.667,56,383.333,56,383z"/>
		<path fill-rule="evenodd" clip-rule="evenodd" fill="#DD97BA" d="M215,0c3.333,0,6.667,0,10,0c-1.386,2.28-6.96,0.373-10,1
			C215,0.667,215,0.333,215,0z"/>
		<path fill-rule="evenodd" clip-rule="evenodd" fill="#D37BA7" d="M512,271c0,3.667,0,7.333,0,11c-0.333,0-0.667,0-1,0
			c0-3.667,0-7.333,0-11C511.333,271,511.667,271,512,271z"/>
		<path fill-rule="evenodd" clip-rule="evenodd" fill="#DD97BA" d="M300,176c0.745-2.255,5.609-0.391,8-1
			C307.255,177.255,302.391,175.391,300,176z"/>
		<path fill-rule="evenodd" clip-rule="evenodd" fill="#E9BBD2" d="M383,189c0,3.333,0,6.667,0,10
			C381.345,197.922,381.345,190.078,383,189z"/>
		<path fill-rule="evenodd" clip-rule="evenodd" fill="#DD97BA" d="M211,195c0.444-1.65,7.556-1.65,8,0
			C216.333,195,213.667,195,211,195z"/>
		<path fill-rule="evenodd" clip-rule="evenodd" fill="#E9BBD2" d="M314,204c0,3.667,0,7.333,0,11
			C312.343,213.6,312.343,205.4,314,204z"/>
		<path fill-rule="evenodd" clip-rule="evenodd" fill="#E9BBD2" d="M427,238c2.366-2.3,8.976-0.358,13-1c0,0.333,0,0.667,0,1
			C435.667,238,431.333,238,427,238z"/>
		<path fill-rule="evenodd" clip-rule="evenodd" fill="#DD97BA" d="M46,383c2,0,4,0,6,0c0,0.333,0,0.667,0,1c-2,0-4,0-6,0
			C46,383.667,46,383.333,46,383z"/>
	</g>
</g>
</svg>
